<svg width="179" height="30" viewBox="0 0 179 30" fill="none" xmlns="http://www.w3.org/2000/svg">
<path d="M5 27L90.9534 25.6452" stroke="white" stroke-width="6" stroke-linecap="round"/>
<path d="M90.5721 25.1326L91.3348 25.2639L13.5344 19.0398M90.5721 25.1326L9.33925 11.153L28.408 2L89.8093 12.2971C89.4279 16.5482 89.0466 25.0668 90.5721 25.1326ZM15.4412 13.0599L5.5255 18.3991L13.5344 19.0398M4.76275 25.1326L13.5344 19.0398" stroke="white" stroke-width="3" stroke-linecap="round"/>
<path d="M174.335 27L88.3814 25.6452" stroke="white" stroke-width="6" stroke-linecap="round"/>
<path d="M88.7627 25.1326L88 25.2639L165.8 19.0398M88.7627 25.1326L169.996 11.153L150.927 2L89.5255 12.2971C89.9069 16.5482 90.2882 25.0668 88.7627 25.1326ZM163.894 13.0599L173.809 18.3991L165.8 19.0398M174.572 25.1326L165.8 19.0398" stroke="white" stroke-width="3" stroke-linecap="round"/>
</svg>
